<svg width="91" height="91" viewBox="0 0 91 91" fill="none" xmlns="http://www.w3.org/2000/svg">
<mask id="mask0_9957_2980" style="mask-type:alpha" maskUnits="userSpaceOnUse" x="0" y="0" width="91" height="91">
<rect width="90.4307" height="90.4307" fill="#D9D9D9"/>
</mask>
<g mask="url(#mask0_9957_2980)">
<path d="M45.5921 79.1267C44.5245 79.1267 43.614 78.7499 42.8604 77.9963C42.1068 77.2428 41.73 76.3322 41.73 75.2646C41.73 74.825 41.8242 74.3697 42.0126 73.8987C42.201 73.4277 42.4836 73.0038 42.8604 72.627L59.3451 56.1423C59.6591 55.8283 59.8161 55.4986 59.8161 55.1532C59.8161 54.8078 59.6591 54.4781 59.3451 54.1641C59.0311 53.8501 58.7014 53.6931 58.356 53.6931C58.0107 53.6931 57.681 53.8501 57.367 54.1641L40.8822 70.6488C40.5054 71.0256 40.0972 71.3082 39.6576 71.4966C39.218 71.685 38.747 71.7792 38.2446 71.7792C37.1771 71.7792 36.2822 71.4181 35.56 70.6959C34.8378 69.9738 34.4767 69.0789 34.4767 68.0113C34.4767 67.3833 34.5709 66.8652 34.7593 66.457C34.9477 66.0488 35.1989 65.6877 35.5129 65.3737L51.9976 48.889C52.3116 48.575 52.4686 48.2453 52.4686 47.8999C52.4686 47.5545 52.3116 47.2248 51.9976 46.9108C51.6836 46.5968 51.3539 46.4398 51.0086 46.4398C50.6632 46.4398 50.3335 46.5968 50.0195 46.9108L33.5347 63.3013C33.1579 63.6781 32.7497 63.9607 32.3101 64.1491C31.8705 64.3375 31.3681 64.4317 30.803 64.4317C29.7982 64.4317 28.919 64.0549 28.1654 63.3013C27.4118 62.5478 27.035 61.6686 27.035 60.6638C27.035 60.1614 27.1292 59.6904 27.3176 59.2508C27.506 58.8112 27.7886 58.403 28.1654 58.0262L44.6501 41.5415C44.9641 41.2275 45.1211 40.8978 45.1211 40.5524C45.1211 40.207 44.9641 39.8773 44.6501 39.5633C44.3362 39.2493 44.0065 39.0923 43.6611 39.0923C43.3157 39.0923 42.986 39.2493 42.672 39.5633L26.2814 56.0481C25.9674 56.3621 25.5906 56.6133 25.151 56.8017C24.7114 56.99 24.1777 57.0842 23.5497 57.0842C22.4821 57.0842 21.5872 56.7388 20.865 56.0481C20.1428 55.3573 19.7817 54.4781 19.7817 53.4105C19.7817 52.9081 19.8759 52.4371 20.0643 51.9975C20.2527 51.5579 20.5353 51.1497 20.9121 50.7729L40.1286 31.5564C40.631 31.054 41.2433 30.8185 41.9655 30.8499C42.6877 30.8813 43.3 31.1482 43.8024 31.6506L53.8816 41.7299C54.5724 42.4207 55.3417 43.0016 56.1895 43.4725C57.0373 43.9435 58.0577 44.179 59.2509 44.179C61.2605 44.179 62.9561 43.5353 64.3377 42.248C65.7192 40.9606 66.41 39.2179 66.41 37.0199C66.41 36.1408 66.2373 35.2773 65.8919 34.4295C65.5465 33.5817 64.9656 32.7496 64.1493 31.9332L50.8673 18.6512C49.9881 17.772 49.4857 16.7358 49.3601 15.5427C49.2345 14.3495 49.6113 13.3447 50.4905 12.5283C51.1813 11.9003 51.9348 11.445 52.7512 11.1624C53.5676 10.8798 54.4154 10.7385 55.2946 10.7385C56.739 10.7385 58.199 11.0839 59.6748 11.7747C61.1506 12.4655 62.4851 13.4075 63.6783 14.6007L79.5978 30.6144C80.7282 31.7448 81.5603 33.0008 82.0941 34.3824C82.6279 35.764 82.8948 37.3653 82.8948 39.1865C82.8948 40.4425 82.6122 41.7142 82.047 43.0016C81.4818 44.2889 80.6654 45.4664 79.5978 46.534L48.2297 77.9963C47.7273 78.4987 47.2877 78.8127 46.9109 78.9383C46.5341 79.0639 46.0945 79.1267 45.5921 79.1267ZM11.4922 48.7948C10.0479 47.5388 8.96458 46.0944 8.24239 44.4616C7.5202 42.8289 7.1591 41.1333 7.1591 39.3749C7.1591 37.7421 7.4574 36.1879 8.05399 34.7121C8.65058 33.2363 9.57687 31.8704 10.8328 30.6144L26.7524 14.6007C27.82 13.5331 28.9975 12.7167 30.2849 12.1515C31.5722 11.5863 32.9381 11.3037 34.3825 11.3037C35.9525 11.3037 37.4754 11.5863 38.9511 12.1515C40.4269 12.7167 41.6986 13.5331 42.7662 14.6007L62.0769 33.9114C62.5165 34.351 62.8776 34.822 63.1602 35.3244C63.4428 35.8268 63.5841 36.3919 63.5841 37.0199C63.5841 38.2131 63.1602 39.2336 62.3124 40.0814C61.4646 40.9292 60.4441 41.3531 59.2509 41.3531C58.5601 41.3531 57.9321 41.1961 57.367 40.8821C56.8018 40.5681 56.268 40.1599 55.7656 39.6575L45.7805 29.6724C44.7129 28.6049 43.3942 28.0711 41.8242 28.0711C40.2542 28.0711 38.9354 28.6049 37.8678 29.6724L18.3687 49.1716C17.4896 50.0507 16.3906 50.4275 15.0718 50.3019C13.753 50.1763 12.5598 49.674 11.4922 48.7948Z" fill="#FEAE23"/>
</g>
</svg>
